<?xml version="1.0" encoding="iso-8859-1"?>
<!-- Generator: Adobe Illustrator 16.0.0, SVG Export Plug-In . SVG Version: 6.00 Build 0)  -->
<!DOCTYPE svg PUBLIC "-//W3C//DTD SVG 1.1//EN" "http://www.w3.org/Graphics/SVG/1.1/DTD/svg11.dtd">
<svg version="1.1" id="Capa_1" xmlns="http://www.w3.org/2000/svg" xmlns:xlink="http://www.w3.org/1999/xlink" x="0px" y="0px"
	 width="321.131px" height="321.131px" viewBox="0 0 321.131 321.131" style="enable-background:new 0 0 321.131 321.131;"
	 xml:space="preserve">
<g>
	<g>
		<path d="M174.661,271.006l-1.802-1.46c-2.983,0.207-11.393,1.403-18.642,7.736c-2.91,2.542-5.587,5.944-7.661,10.429
			c-2.227,4.815-3.733,10.868-3.951,18.579l2.149,1.734c4.388,3.547,12.443,1.103,19.736-5.297l21.805,16.839
			c3.272,2.532,7.99,1.926,10.517-1.352c2.532-3.277,1.927-7.99-1.352-10.517l-21.603-16.684
			C178.378,282.678,178.979,274.497,174.661,271.006z"/>
		<path d="M235.193,200.858l-2.159-0.849c-2.766,1.087-10.377,4.728-15.4,12.862c-2.056,3.34-3.619,7.446-4.256,12.433
			c-0.668,5.24-0.285,11.449,1.807,18.833l2.574,1.015c5.255,2.066,12.204-2.682,17.237-10.972l25.85,9.527
			c3.889,1.435,8.197-0.555,9.631-4.443c1.43-3.889-0.559-8.196-4.447-9.631l-25.606-9.435
			C242.24,210.878,240.361,202.893,235.193,200.858z"/>
		<path d="M35.672,211.675l43.895,35.465c-0.712,4.484,0.078,8.285,2.672,10.377l55.346,44.714
			c2.328-27.025,19.931-34.886,29.795-37.117l-55.225-44.62c-2.641-2.139-6.623-2.087-10.962-0.352L57.412,184.77
			c-4.093-3.309-9.232-4.359-14.03-3.469c-11.788-19.33-17.8-38.847-20.461-58.806c9.559,20.516,25.647,37.145,50.971,47.263
			c-0.026,6.929,4.088,13.479,10.923,16.172l52.503,20.666c0.663,4.489,2.563,7.881,5.665,9.098l66.205,26.062
			c-5.877-26.476,8.56-39.25,17.3-44.341l-66.072-26.01c-3.159-1.247-6.944-0.005-10.556,2.952l-52.372-20.619
			c-5.007-1.973-10.341-1.372-14.703,1.051c-41.599-15.485-53.904-50.522-54.818-90.003c17.5,33.419,46.046,60.452,81.644,74.78
			c1.022,7.387,6.701,13.559,14.447,14.734l55.786,8.495c1.647,4.23,4.252,7.114,7.545,7.611l70.34,10.719
			c-11.62-24.508-0.378-40.169,7.016-47.074l-70.199-10.68c-3.355-0.508-6.778,1.538-9.642,5.225l-55.644-8.474
			c-4.93-0.753-9.665,0.694-13.292,3.563C73.102,106.425,40.777,67.856,30.025,22.902c-0.025-0.155-0.075-0.292-0.106-0.44
			c-1.119-4.72-2.079-9.476-2.703-14.312c-1.396-10.799-18.542-10.934-17.131,0c0.528,4.122,1.229,8.205,2.056,12.244
			c-1.585,1.356-2.742,3.293-3.011,5.844C2.804,86.43-3.384,140.132,30.253,192.589C27.941,199.279,29.844,206.974,35.672,211.675z"
			/>
		<path d="M259.541,151.086c-1.27,3.708-1.875,8.057-1.388,13.059c0.513,5.267,2.263,11.227,5.944,17.958l2.729,0.415
			c5.582,0.849,11.304-5.318,14.375-14.525l27.319,3.547c4.106,0.539,7.865-2.361,8.404-6.467c0.533-4.106-2.366-7.866-6.468-8.402
			l-27.066-3.516c-0.289-9.481-3.898-16.852-9.388-17.688l-2.294-0.35C269.244,136.797,262.631,142.035,259.541,151.086z"/>
	</g>
</g>
<g>
</g>
<g>
</g>
<g>
</g>
<g>
</g>
<g>
</g>
<g>
</g>
<g>
</g>
<g>
</g>
<g>
</g>
<g>
</g>
<g>
</g>
<g>
</g>
<g>
</g>
<g>
</g>
<g>
</g>
</svg>
