<?xml version="1.0" encoding="iso-8859-1"?>
<!-- Generator: Adobe Illustrator 16.0.0, SVG Export Plug-In . SVG Version: 6.00 Build 0)  -->
<!DOCTYPE svg PUBLIC "-//W3C//DTD SVG 1.1//EN" "http://www.w3.org/Graphics/SVG/1.1/DTD/svg11.dtd">
<svg version="1.1" id="Capa_1" xmlns="http://www.w3.org/2000/svg" xmlns:xlink="http://www.w3.org/1999/xlink" x="0px" y="0px"
	 width="409.917px" height="409.917px" viewBox="0 0 409.917 409.917" style="enable-background:new 0 0 409.917 409.917;"
	 xml:space="preserve">
<g>
	<g>
		<path d="M367.333,129.295c-4.356,0-7.896-2.988-7.896-6.675v-6.67c0-19.639-15.986-35.627-35.633-35.627H128.501
			c-19.639,0-35.627,15.98-35.627,35.627v46.255c0,4.359-3.39,6.896-7.666,6.004c-13.998-2.932-34.957-4.425-52.818,6.264
			c-17.776,10.633-28.315,30.855-31.309,60.11c-1.823,17.839-0.97,38.095-0.142,57.711c0.467,11.156,0.957,22.698,0.901,33.332
			c-0.008,2.168,1.754,3.945,3.936,3.966c2.186,0,3.956-1.762,3.966-3.936c0.053-10.801-0.437-22.439-0.909-33.702
			c-0.815-19.317-1.652-39.304,0.109-56.563c2.734-26.614,11.977-44.826,27.469-54.116c16.234-9.725,36.15-7.765,48.83-4.921
			c4.258,0.955,7.632,5.561,7.632,9.923v10.214c0,4.359-3.423,6.967-7.734,6.327c-9.694-1.452-22.43-1.358-33.497,5.278
			c-12.735,7.607-20.271,22.019-22.404,42.818c-1.28,12.512-0.688,26.68-0.112,40.375c0.34,8.129,0.663,15.817,0.625,23.186
			c-0.008,2.188,1.754,3.966,3.925,3.981c2.196,0,3.966-1.757,3.974-3.931c0.041-7.561-0.3-15.706-0.63-23.577
			c-0.569-13.405-1.155-27.294,0.069-39.237c1.866-18.159,8.107-30.549,18.575-36.831c9.526-5.702,20.997-5.443,29.513-4.011
			c4.306,0.726,7.696,5.286,7.696,9.643v35.83c0,19.637,15.98,35.627,35.627,35.627h195.304c19.642,0,35.633-15.98,35.633-35.627
			c0,0,0-2.985,0-6.678c0-3.687,3.539-6.672,7.896-6.672h36.658c3.26,0,5.926-2.656,5.926-5.926v-101.85
			c0-3.255-2.666-5.923-5.926-5.923H367.333z M347.585,135.219v101.854v19.271c0,13.111-10.674,23.775-23.78,23.775H128.501
			c-13.106,0-23.778-10.664-23.778-23.775V115.951c0-13.114,10.671-23.778,23.778-23.778h195.304
			c13.106,0,23.78,10.664,23.78,23.778V135.219L347.585,135.219z M390.16,231.146h-22.831c-4.362,0-7.901-1.64-7.901-3.676
			c0-2.041,3.539-3.682,7.901-3.682h18.266c2.179,0,3.945-1.777,3.945-3.951c0-2.188-1.767-3.95-3.945-3.95h-18.261
			c-4.356,0-7.896-3.214-7.896-7.19s3.539-7.188,7.896-7.188h18.266c2.184,0,3.951-1.777,3.951-3.951c0-2.188-1.768-3.95-3.951-3.95
			h-18.266c-4.356,0-7.896-3.215-7.896-7.188c0-3.973,3.539-7.19,7.896-7.19h18.266c2.184,0,3.951-1.777,3.951-3.948
			c0-2.189-1.768-3.951-3.951-3.951h-18.266c-4.356,0-7.896-3.225-7.896-7.19c0-3.974,3.539-7.188,7.896-7.188h18.266
			c2.184,0,3.951-1.777,3.951-3.951c0-2.188-1.768-3.951-3.951-3.951h-18.266c-4.356,0-7.896-1.767-7.896-3.948
			c0-2.181,3.539-3.951,7.896-3.951h22.831c4.361,0,7.901,3.54,7.901,7.899v74.205C398.061,227.613,394.526,231.146,390.16,231.146z
			"/>
	</g>
</g>
<g>
</g>
<g>
</g>
<g>
</g>
<g>
</g>
<g>
</g>
<g>
</g>
<g>
</g>
<g>
</g>
<g>
</g>
<g>
</g>
<g>
</g>
<g>
</g>
<g>
</g>
<g>
</g>
<g>
</g>
</svg>
